<mxfile host="app.diagrams.net" modified="2023-12-05T02:36:35.442Z" agent="Mozilla/5.0 (Macintosh; Intel Mac OS X 10_15_7) AppleWebKit/537.36 (KHTML, like Gecko) Chrome/119.0.0.0 Safari/537.36" version="22.1.5" etag="ihhIvEBwekRdhs6PT7tl" type="github">
  <diagram name="第 1 页" id="B3if3VbOm25jEj_AQkjj">
    <mxGraphModel>
      <root>
        <mxCell id="0" />
        <mxCell id="1" parent="0" />
      </root>
    </mxGraphModel>
  </diagram>
</mxfile>
